<?xml version="1.0" encoding="UTF-8"?>
<svg id="Layer_2" data-name="Layer 2" xmlns="http://www.w3.org/2000/svg" viewBox="0 0 264.42 48.46">
  <defs>
    <style>
      .cls-1 {
        fill: #6c4992;
      }

      .cls-1, .cls-2 {
        stroke-width: 0px;
      }

      .cls-2 {
        fill: #e07627;
      }
    </style>
  </defs>
  <g id="Layer_1-2" data-name="Layer 1">
    <g>
      <path class="cls-2" d="m0,24.36V0h24.36c1.34,0,2.01,1.62,1.06,2.57L2.57,25.42c-.95.95-2.57.28-2.57-1.06Z"/>
      <polygon class="cls-1" points="44.33 0 36.54 7.78 36.54 48.46 50.25 48.46 50.25 0 44.33 0"/>
      <path class="cls-1" d="m98.84,0h-30.47l-7.74,7.74v40.72h13.71v-11.32h.53l4.39,11.32h19.57c14.44,0,19.77-7.52,19.77-19.24v-9.98c0-11.72-5.33-19.24-19.77-19.24Zm5.99,28.02c0,5.79-2.06,7.85-7.25,7.85h-23.23V13.11c0-.53.4-1,1-1h22.23c5.26,0,7.25,1.73,7.25,7.79v8.12Z"/>
      <path class="cls-1" d="m253.97,20.77l-30.09-4.19c-1.73-.27-2.26-.53-2.26-2.4v-1.2c0-1.53.6-2.33,2.46-2.33h25.56c.53,0,.8.27.8.8v5.33h.53l12.71-4.66V2.13c0-1.4-.67-2.13-2.06-2.13h-47.13l-7.72,7.72c-.21,1.02-.33,2.13-.33,3.33v3.39c0,7.06,3.13,10.18,10.98,11.18l29.02,3.66c1.66.2,2.13.73,2.13,2.4v1.33c0,2.13-.6,2.86-2.86,2.86h-38.67v12.58h43.13c.56,0,1.08-.02,1.6-.04v.04h4.22l8.43-8.43v-7.75c0-7.32-2.73-10.45-10.45-11.52Z"/>
      <path class="cls-1" d="m174.12,0c-1.53,0-2.33.67-2.73,1.8l-8.39,24.24-8.35-24.24c-.4-1.13-1.26-1.8-2.79-1.8h-15.95l-7.81,7.81v40.65h12.85V12.05c0-.67.4-1.06,1.06-1.06h.67c.66,0,1.06.33,1.26.87l13.18,35.08c.39,1.01.96,1.39,2,1.49,0,.01,0,.03,0,.04h7.21s0-.02,0-.03c1.13-.07,1.79-.43,2.2-1.5l13.25-35.08c.2-.53.6-.87,1.2-.87h.73c.67,0,1,.4,1,1.06v36.41h12.91V7.81l-7.81-7.81h-15.69Z"/>
    </g>
  </g>
</svg>