<svg version="1.1" id="Layer_1" xmlns="http://www.w3.org/2000/svg" xmlns:xlink="http://www.w3.org/1999/xlink" x="0px" y="0px"
	 width="100%" viewBox="0 0 990 990" enable-background="new 0 0 990 990" xml:space="preserve">
<path fill="#FFFFFF" opacity="1.000000" stroke="none" 
	d="
M434.000000,991.000000 
	C289.333344,991.000000 145.166672,991.000000 1.000000,991.000000 
	C1.000000,661.000000 1.000000,331.000000 1.000000,1.000000 
	C331.000000,1.000000 661.000000,1.000000 991.000000,1.000000 
	C991.000000,331.000000 991.000000,661.000000 991.000000,991.000000 
	C805.500000,991.000000 620.000000,991.000000 434.000000,991.000000 
M292.027344,563.048401 
	C292.018188,592.547485 291.979340,622.046692 292.058746,651.545532 
	C292.064819,653.802917 292.582275,656.185486 293.410095,658.294678 
	C302.253784,680.828003 323.676270,695.275330 348.912628,695.299072 
	C444.910095,695.389465 540.907715,695.338562 636.905273,695.320251 
	C638.082092,695.320007 639.258972,695.053406 640.650940,694.885071 
	C611.529663,663.965210 601.756226,628.667664 617.271240,589.195496 
	C632.760132,549.789856 663.963318,530.546387 705.678406,527.948608 
	C705.678406,525.320923 705.678406,523.178528 705.876465,520.113708 
	C705.891602,455.641602 706.008240,391.169250 705.849609,326.697571 
	C705.810608,310.831024 699.681030,297.119568 688.324707,286.038330 
	C678.378113,276.332611 667.043823,270.739655 652.295105,270.793915 
	C547.341370,271.180176 442.385590,270.973297 337.430634,271.100433 
	C333.399689,271.105316 329.114319,271.965424 325.386353,273.495911 
	C311.767212,279.087036 301.540253,288.671082 295.153534,301.920197 
	C293.280273,305.806244 292.137848,310.461487 292.128479,314.767365 
	C291.953278,395.232605 291.998535,475.698273 292.006714,556.163879 
	C292.006927,558.159363 292.110931,560.154907 292.027344,563.048401 
M719.933044,666.367065 
	C719.933044,649.014099 719.933044,631.661072 719.933044,614.308105 
	C720.462952,614.056824 720.992859,613.805542 721.522705,613.554260 
	C723.689148,616.074707 725.685242,618.771057 728.062561,621.073853 
	C731.499817,624.403381 735.732788,625.728882 740.481323,624.561035 
	C751.186157,621.928284 754.669067,609.568970 746.803772,601.332520 
	C736.564331,590.609863 726.089417,580.108826 715.583069,569.645691 
	C709.940186,564.026001 701.338684,564.275269 695.440002,570.213867 
	C685.224731,580.498291 675.109558,590.883850 665.063416,601.333679 
	C659.401855,607.222717 659.439758,615.700378 664.895203,621.058899 
	C670.402222,626.468079 678.644897,626.223999 684.552368,620.376770 
	C686.726501,618.224792 688.703979,615.874146 690.771179,613.614136 
	C691.176086,613.866882 691.580994,614.119629 691.985901,614.372375 
	C691.985901,615.965027 691.985718,617.557739 691.985901,619.150391 
	C691.987915,636.148743 691.960693,653.147217 692.008728,670.145447 
	C692.024719,675.789551 694.476562,680.189880 699.601379,682.671265 
	C704.425598,685.007202 709.345032,684.770264 713.877930,681.780029 
	C719.073486,678.352844 720.222656,673.108337 719.933044,666.367065 
z"/>
<path fill="#4A566E" opacity="1.000000" stroke="none" 
	d="
M292.166504,562.150391 
	C292.110931,560.154907 292.006927,558.159363 292.006714,556.163879 
	C291.998535,475.698273 291.953278,395.232605 292.128479,314.767365 
	C292.137848,310.461487 293.280273,305.806244 295.153534,301.920197 
	C301.540253,288.671082 311.767212,279.087036 325.386353,273.495911 
	C329.114319,271.965424 333.399689,271.105316 337.430634,271.100433 
	C442.385590,270.973297 547.341370,271.180176 652.295105,270.793915 
	C667.043823,270.739655 678.378113,276.332611 688.324707,286.038330 
	C699.681030,297.119568 705.810608,310.831024 705.849609,326.697571 
	C706.008240,391.169250 705.891602,455.641602 705.519348,520.386353 
	C673.975525,489.211304 642.740417,457.811371 611.673401,426.245880 
	C608.382935,422.902588 606.521057,422.582886 603.044250,426.093719 
	C564.140076,465.378601 525.070862,504.500122 486.036407,543.655823 
	C484.799225,544.896851 483.457642,546.033630 481.248352,548.059204 
	C479.859894,546.140259 478.959625,544.473755 477.677979,543.186951 
	C451.352753,516.756958 424.922668,490.430939 398.700806,463.898987 
	C395.379608,460.538513 393.569366,460.787170 390.394196,463.989136 
	C359.554321,495.088806 328.564178,526.039490 297.605194,557.020935 
	C295.844482,558.782959 293.981750,560.442932 292.166504,562.150391 
M503.205841,438.729645 
	C519.516541,424.132690 521.434448,401.655609 507.741882,385.569611 
	C494.763580,370.322754 471.871643,368.317078 456.058075,381.041382 
	C440.559387,393.512238 437.864868,416.860931 450.105469,432.621643 
	C462.931427,449.135925 485.378510,451.928406 503.205841,438.729645 
z"/>
<path fill="#00B594" opacity="1.000000" stroke="none" 
	d="
M292.096924,562.599365 
	C293.981750,560.442932 295.844482,558.782959 297.605194,557.020935 
	C328.564178,526.039490 359.554321,495.088806 390.394196,463.989136 
	C393.569366,460.787170 395.379608,460.538513 398.700806,463.898987 
	C424.922668,490.430939 451.352753,516.756958 477.677979,543.186951 
	C478.959625,544.473755 479.859894,546.140259 481.248352,548.059204 
	C483.457642,546.033630 484.799225,544.896851 486.036407,543.655823 
	C525.070862,504.500122 564.140076,465.378601 603.044250,426.093719 
	C606.521057,422.582886 608.382935,422.902588 611.673401,426.245880 
	C642.740417,457.811371 673.975525,489.211304 705.420288,520.847534 
	C705.678406,523.178528 705.678406,525.320923 705.678406,527.948608 
	C663.963318,530.546387 632.760132,549.789856 617.271240,589.195496 
	C601.756226,628.667664 611.529663,663.965210 640.650940,694.885071 
	C639.258972,695.053406 638.082092,695.320007 636.905273,695.320251 
	C540.907715,695.338562 444.910095,695.389465 348.912628,695.299072 
	C323.676270,695.275330 302.253784,680.828003 293.410095,658.294678 
	C292.582275,656.185486 292.064819,653.802917 292.058746,651.545532 
	C291.979340,622.046692 292.018188,592.547485 292.096924,562.599365 
z"/>
<path fill="#03B695" opacity="1.000000" stroke="none" 
	d="
M719.932983,666.843689 
	C720.222656,673.108337 719.073486,678.352844 713.877930,681.780029 
	C709.345032,684.770264 704.425598,685.007202 699.601379,682.671265 
	C694.476562,680.189880 692.024719,675.789551 692.008728,670.145447 
	C691.960693,653.147217 691.987915,636.148743 691.985901,619.150391 
	C691.985718,617.557739 691.985901,615.965027 691.985901,614.372375 
	C691.580994,614.119629 691.176086,613.866882 690.771179,613.614136 
	C688.703979,615.874146 686.726501,618.224792 684.552368,620.376770 
	C678.644897,626.223999 670.402222,626.468079 664.895203,621.058899 
	C659.439758,615.700378 659.401855,607.222717 665.063416,601.333679 
	C675.109558,590.883850 685.224731,580.498291 695.440002,570.213867 
	C701.338684,564.275269 709.940186,564.026001 715.583069,569.645691 
	C726.089417,580.108826 736.564331,590.609863 746.803772,601.332520 
	C754.669067,609.568970 751.186157,621.928284 740.481323,624.561035 
	C735.732788,625.728882 731.499817,624.403381 728.062561,621.073853 
	C725.685242,618.771057 723.689148,616.074707 721.522705,613.554260 
	C720.992859,613.805542 720.462952,614.056824 719.933044,614.308105 
	C719.933044,631.661072 719.933044,649.014099 719.932983,666.843689 
z"/>
<path fill="#FECB04" opacity="1.000000" stroke="none" 
	d="
M502.918396,438.942780 
	C485.378510,451.928406 462.931427,449.135925 450.105469,432.621643 
	C437.864868,416.860931 440.559387,393.512238 456.058075,381.041382 
	C471.871643,368.317078 494.763580,370.322754 507.741882,385.569611 
	C521.434448,401.655609 519.516541,424.132690 502.918396,438.942780 
z"/>
</svg>